# Blender v2.90.0 OBJ File: 'astrobox.blend'
# www.blender.org
mtllib astrobox.mtl
o Cube_Cube.001
v -50.000000 -50.000000 50.000000
v -50.000000 50.000000 50.000000
v -50.000000 -50.000000 -50.000000
v -50.000000 50.000000 -50.000000
v 50.000000 -50.000000 50.000000
v 50.000000 50.000000 50.000000
v 50.000000 -50.000000 -50.000000
v 50.000000 50.000000 -50.000000
vt 0.624613 0.173501
vt 0.809028 0.173501
vt 0.809028 0.419387
vt 0.624613 0.419387
vt 0.945268 0.429633
vt 0.760853 0.429633
vt 0.760853 0.183747
vt 0.945268 0.183747
vt 0.702648 0.433498
vt 0.702648 0.187611
vt 0.887063 0.187611
vt 0.887063 0.433497
vt 0.706376 0.387303
vt 0.521961 0.387302
vt 0.521961 0.141416
vt 0.706376 0.141416
vt 0.655579 0.148102
vt 0.839994 0.148102
vt 0.839994 0.393989
vt 0.655579 0.393989
vt 0.735731 0.182704
vt 0.735731 0.428591
vt 0.551316 0.428591
vt 0.551316 0.182704
vn 1.0000 0.0000 0.0000
vn 0.0000 0.0000 1.0000
vn -1.0000 0.0000 0.0000
vn 0.0000 0.0000 -1.0000
vn 0.0000 1.0000 0.0000
vn 0.0000 -1.0000 0.0000
usemtl Material.002
s off
f 1/1/1 3/2/1 4/3/1 2/4/1
f 3/5/2 7/6/2 8/7/2 4/8/2
f 7/9/3 5/10/3 6/11/3 8/12/3
f 5/13/4 1/14/4 2/15/4 6/16/4
f 3/17/5 1/18/5 5/19/5 7/20/5
f 8/21/6 6/22/6 2/23/6 4/24/6
